<svg width="64" height="64" viewBox="0 0 64 64" xmlns="http://www.w3.org/2000/svg">
  <defs>
    <linearGradient id="blueGradient" x1="0%" y1="0%" x2="100%" y2="100%">
      <stop offset="0%" style="stop-color:#007bff;stop-opacity:1" />
      <stop offset="100%" style="stop-color:#00d2ff;stop-opacity:1" />
    </linearGradient>
  </defs>
  <rect width="64" height="64" rx="14" ry="14" fill="url(#blueGradient)" />
  <path d="M32 16c-6 0-10 4-10 10v2c0 8 4 10 10 10h0c6 0 10-2 10-10v-2c0-6-4-10-10-10zM22 28a4 4 0 0 0 8 0v-4a4 4 0 0 0-8 0v4zM34 24a4 4 0 0 0 8 0v4a4 4 0 0 0-8 0v-4z" fill="white" />
</svg>