<svg width="64" height="64" viewBox="0 0 64 64" fill="none" xmlns="http://www.w3.org/2000/svg">
  <rect width="64" height="64" rx="16" fill="url(#bg)"/>
  <defs>
    <linearGradient id="bg" x1="0" y1="0" x2="64" y2="64">
      <stop offset="0%" stop-color="#3b82f6"/>
      <stop offset="100%" stop-color="#06b6d4"/>
    </linearGradient>
  </defs>
  <!-- Brain path -->
  <path d="M32 16c-5.5 0-10 4.5-10 10 0 3 1.5 5.5 4 7v4c0 2 2 4 4 4h4v4c0 1 1 2 2 2s2-1 2-2v-4h4c2 0 4-2 4-4v-4c2.5-1.5 4-4 4-7 0-5.5-4.5-10-10-10z" stroke="white" stroke-width="3" stroke-linecap="round" stroke-linejoin="round"/>
  <path d="M32 16v30" stroke="white" stroke-width="3" stroke-linecap="round"/>
</svg>
